# xmcd CD database file
#
# Track frame offsets:
#	150
#	19473
#	37705
#	56591
#	81251
#	98711
#	117341
#	138527
#	158283
#	181341
#	203118
#	219196
#	244459
#	257821
#
# Disc length: 3665 seconds
#
# Revision: 3
# Processed by: cddbd v1.5.2PL0 Copyright (c) Steve Scherf et al.
# Submitted via: CDex 1.51
#
DISCID=ba0e4f0e
DTITLE=Torsten Goods - Love Comes To Town
DYEAR=1900
DGENRE=Jazz
TTITLE0=You Wind Me Up
TTITLE1=When Love Comes To Town
TTITLE2=Freedom Every Day
TTITLE3=Put It Where You Want It
TTITLE4=Unlucky Like Me
TTITLE5=Right Here Waiting
TTITLE6=Brutal Truth
TTITLE7=Weekend At The A-Trane
TTITLE8=Someone Like You
TTITLE9=Summer Lovin
TTITLE10=Outa Here
TTITLE11=Nightlife
TTITLE12=They Can't Take That Away From Me
TTITLE13=Berlin P.M.
EXTD=
EXTT0=
EXTT1=
EXTT2=
EXTT3=
EXTT4=
EXTT5=
EXTT6=
EXTT7=
EXTT8=
EXTT9=
EXTT10=
EXTT11=
EXTT12=
EXTT13=
PLAYORDER=
